<mxfile host="app.diagrams.net" modified="2022-11-02T05:24:10.296Z" agent="5.0 (Macintosh; Intel Mac OS X 10_15_7) AppleWebKit/537.36 (KHTML, like Gecko) Chrome/107.0.0.0 Safari/537.36" etag="JD4lOqYiIGC6F4jHfKVo" version="20.5.1" type="github">
  <diagram id="A_prHjekze4ehQRo7N7Z" name="第 1 页">
    <mxGraphModel dx="1426" dy="794" grid="1" gridSize="10" guides="1" tooltips="1" connect="1" arrows="1" fold="1" page="1" pageScale="1" pageWidth="3300" pageHeight="4681" math="0" shadow="0">
      <root>
        <mxCell id="0" />
        <mxCell id="1" parent="0" />
        <mxCell id="ayYiNTBMR1gc4Ib_SkY1-1" value="" style="rounded=0;whiteSpace=wrap;html=1;fillColor=#d5e8d4;strokeColor=#82b366;" vertex="1" parent="1">
          <mxGeometry x="520" y="160" width="310" height="370" as="geometry" />
        </mxCell>
        <mxCell id="ayYiNTBMR1gc4Ib_SkY1-2" value="调用栈" style="text;html=1;align=center;verticalAlign=middle;resizable=0;points=[];autosize=1;strokeColor=none;fillColor=none;fontColor=#000000;" vertex="1" parent="1">
          <mxGeometry x="645" y="500" width="60" height="30" as="geometry" />
        </mxCell>
        <mxCell id="ayYiNTBMR1gc4Ib_SkY1-3" value="" style="whiteSpace=wrap;html=1;fillColor=#f8cecc;strokeColor=#b85450;" vertex="1" parent="1">
          <mxGeometry x="530" y="180" width="280" height="130" as="geometry" />
        </mxCell>
        <mxCell id="ayYiNTBMR1gc4Ib_SkY1-4" value="setName函数执行上下文" style="text;html=1;align=center;verticalAlign=middle;resizable=0;points=[];autosize=1;strokeColor=none;fillColor=none;fontColor=#000000;" vertex="1" parent="1">
          <mxGeometry x="590" y="280" width="160" height="30" as="geometry" />
        </mxCell>
        <mxCell id="ayYiNTBMR1gc4Ib_SkY1-5" value="" style="group" vertex="1" connectable="0" parent="1">
          <mxGeometry x="555" y="280" width="230" height="60" as="geometry" />
        </mxCell>
        <mxCell id="ayYiNTBMR1gc4Ib_SkY1-6" value="" style="group" vertex="1" connectable="0" parent="ayYiNTBMR1gc4Ib_SkY1-5">
          <mxGeometry y="-90" width="230" height="60" as="geometry" />
        </mxCell>
        <mxCell id="ayYiNTBMR1gc4Ib_SkY1-7" value="" style="rounded=0;whiteSpace=wrap;html=1;fontColor=#000000;" vertex="1" parent="ayYiNTBMR1gc4Ib_SkY1-6">
          <mxGeometry width="230" height="60" as="geometry" />
        </mxCell>
        <mxCell id="ayYiNTBMR1gc4Ib_SkY1-8" value="xx60" style="text;html=1;align=center;verticalAlign=middle;resizable=0;points=[];autosize=1;strokeColor=none;fillColor=none;fontColor=#000000;" vertex="1" parent="ayYiNTBMR1gc4Ib_SkY1-6">
          <mxGeometry x="30" y="15" width="50" height="30" as="geometry" />
        </mxCell>
        <mxCell id="ayYiNTBMR1gc4Ib_SkY1-9" value="&lt;font color=&quot;#0000ff&quot;&gt;00X9&lt;/font&gt;" style="text;html=1;align=center;verticalAlign=middle;resizable=0;points=[];autosize=1;strokeColor=none;fillColor=none;fontColor=#000000;" vertex="1" parent="ayYiNTBMR1gc4Ib_SkY1-6">
          <mxGeometry x="145" y="15" width="50" height="30" as="geometry" />
        </mxCell>
        <mxCell id="ayYiNTBMR1gc4Ib_SkY1-10" value="" style="endArrow=none;html=1;rounded=0;fontColor=#000000;entryX=0.5;entryY=0;entryDx=0;entryDy=0;exitX=0.5;exitY=1;exitDx=0;exitDy=0;" edge="1" parent="ayYiNTBMR1gc4Ib_SkY1-6" source="ayYiNTBMR1gc4Ib_SkY1-7" target="ayYiNTBMR1gc4Ib_SkY1-7">
          <mxGeometry width="50" height="50" relative="1" as="geometry">
            <mxPoint x="260" y="500" as="sourcePoint" />
            <mxPoint x="310" y="450" as="targetPoint" />
          </mxGeometry>
        </mxCell>
        <mxCell id="ayYiNTBMR1gc4Ib_SkY1-11" value="" style="rounded=0;whiteSpace=wrap;html=1;fillColor=#e1d5e7;strokeColor=#9673a6;labelBackgroundColor=default;" vertex="1" parent="1">
          <mxGeometry x="870" y="160" width="270" height="370" as="geometry" />
        </mxCell>
        <mxCell id="ayYiNTBMR1gc4Ib_SkY1-12" value="00X2" style="text;html=1;align=center;verticalAlign=middle;resizable=0;points=[];autosize=1;strokeColor=none;fillColor=none;fontColor=#000000;" vertex="1" parent="1">
          <mxGeometry x="920" y="385" width="50" height="30" as="geometry" />
        </mxCell>
        <mxCell id="ayYiNTBMR1gc4Ib_SkY1-13" value="堆 Heap" style="text;html=1;align=center;verticalAlign=middle;resizable=0;points=[];autosize=1;strokeColor=none;fillColor=none;fontColor=#000000;" vertex="1" parent="1">
          <mxGeometry x="960" y="500" width="70" height="30" as="geometry" />
        </mxCell>
        <mxCell id="ayYiNTBMR1gc4Ib_SkY1-16" value="" style="rounded=1;whiteSpace=wrap;html=1;fillColor=none;dashed=1;" vertex="1" parent="1">
          <mxGeometry x="895" y="375" width="225" height="50" as="geometry" />
        </mxCell>
        <mxCell id="ayYiNTBMR1gc4Ib_SkY1-14" value="{ &lt;br&gt;&amp;nbsp; &amp;nbsp;name:’&lt;font color=&quot;#ff0818&quot;&gt;阿彬&lt;/font&gt;‘&lt;br&gt;}" style="text;html=1;align=left;verticalAlign=middle;resizable=0;points=[];autosize=1;strokeColor=none;fillColor=none;fontColor=#000000;" vertex="1" parent="1">
          <mxGeometry x="1040" y="370" width="100" height="60" as="geometry" />
        </mxCell>
        <mxCell id="ayYiNTBMR1gc4Ib_SkY1-15" value="obj 参数 地址" style="text;html=1;align=center;verticalAlign=middle;resizable=0;points=[];autosize=1;strokeColor=none;fillColor=none;fontColor=#000000;" vertex="1" parent="1">
          <mxGeometry x="565" y="250" width="90" height="30" as="geometry" />
        </mxCell>
        <mxCell id="ayYiNTBMR1gc4Ib_SkY1-17" value="值" style="text;html=1;align=center;verticalAlign=middle;resizable=0;points=[];autosize=1;strokeColor=none;fillColor=none;fontColor=#000000;" vertex="1" parent="1">
          <mxGeometry x="705" y="250" width="40" height="30" as="geometry" />
        </mxCell>
        <mxCell id="ayYiNTBMR1gc4Ib_SkY1-18" value="地址" style="text;html=1;align=center;verticalAlign=middle;resizable=0;points=[];autosize=1;strokeColor=none;fillColor=none;fontColor=#000000;" vertex="1" parent="1">
          <mxGeometry x="920" y="425" width="50" height="30" as="geometry" />
        </mxCell>
        <mxCell id="ayYiNTBMR1gc4Ib_SkY1-19" value="值" style="text;html=1;align=center;verticalAlign=middle;resizable=0;points=[];autosize=1;strokeColor=none;fillColor=none;fontColor=#000000;" vertex="1" parent="1">
          <mxGeometry x="1030" y="425" width="40" height="30" as="geometry" />
        </mxCell>
        <mxCell id="ayYiNTBMR1gc4Ib_SkY1-20" value="" style="whiteSpace=wrap;html=1;fillColor=#f8cecc;strokeColor=#b85450;" vertex="1" parent="1">
          <mxGeometry x="530" y="360" width="280" height="130" as="geometry" />
        </mxCell>
        <mxCell id="ayYiNTBMR1gc4Ib_SkY1-21" value="全局上下文" style="text;html=1;align=center;verticalAlign=middle;resizable=0;points=[];autosize=1;strokeColor=none;fillColor=none;fontColor=#000000;" vertex="1" parent="1">
          <mxGeometry x="630" y="460" width="80" height="30" as="geometry" />
        </mxCell>
        <mxCell id="ayYiNTBMR1gc4Ib_SkY1-22" value="" style="group" vertex="1" connectable="0" parent="1">
          <mxGeometry x="555" y="370" width="230" height="60" as="geometry" />
        </mxCell>
        <mxCell id="ayYiNTBMR1gc4Ib_SkY1-23" value="" style="rounded=0;whiteSpace=wrap;html=1;fontColor=#000000;" vertex="1" parent="ayYiNTBMR1gc4Ib_SkY1-22">
          <mxGeometry width="230" height="60" as="geometry" />
        </mxCell>
        <mxCell id="ayYiNTBMR1gc4Ib_SkY1-24" value="xx70" style="text;html=1;align=center;verticalAlign=middle;resizable=0;points=[];autosize=1;strokeColor=none;fillColor=none;fontColor=#000000;" vertex="1" parent="ayYiNTBMR1gc4Ib_SkY1-22">
          <mxGeometry x="30" y="15" width="50" height="30" as="geometry" />
        </mxCell>
        <mxCell id="ayYiNTBMR1gc4Ib_SkY1-25" value="&lt;font color=&quot;#ff0000&quot;&gt;00X2&lt;/font&gt;" style="text;html=1;align=center;verticalAlign=middle;resizable=0;points=[];autosize=1;strokeColor=none;fillColor=none;fontColor=#000000;" vertex="1" parent="ayYiNTBMR1gc4Ib_SkY1-22">
          <mxGeometry x="145" y="15" width="50" height="30" as="geometry" />
        </mxCell>
        <mxCell id="ayYiNTBMR1gc4Ib_SkY1-26" value="" style="endArrow=none;html=1;rounded=0;fontColor=#000000;entryX=0.5;entryY=0;entryDx=0;entryDy=0;exitX=0.5;exitY=1;exitDx=0;exitDy=0;" edge="1" parent="ayYiNTBMR1gc4Ib_SkY1-22" source="ayYiNTBMR1gc4Ib_SkY1-23" target="ayYiNTBMR1gc4Ib_SkY1-23">
          <mxGeometry width="50" height="50" relative="1" as="geometry">
            <mxPoint x="260" y="500" as="sourcePoint" />
            <mxPoint x="310" y="450" as="targetPoint" />
          </mxGeometry>
        </mxCell>
        <mxCell id="ayYiNTBMR1gc4Ib_SkY1-27" value="person地址" style="text;html=1;align=center;verticalAlign=middle;resizable=0;points=[];autosize=1;strokeColor=none;fillColor=none;fontColor=#000000;" vertex="1" parent="1">
          <mxGeometry x="570" y="430" width="80" height="30" as="geometry" />
        </mxCell>
        <mxCell id="ayYiNTBMR1gc4Ib_SkY1-28" value="值" style="text;html=1;align=center;verticalAlign=middle;resizable=0;points=[];autosize=1;strokeColor=none;fillColor=none;fontColor=#000000;" vertex="1" parent="1">
          <mxGeometry x="705" y="430" width="40" height="30" as="geometry" />
        </mxCell>
        <mxCell id="ayYiNTBMR1gc4Ib_SkY1-29" style="edgeStyle=orthogonalEdgeStyle;rounded=1;orthogonalLoop=1;jettySize=auto;html=1;exitX=1;exitY=0.5;exitDx=0;exitDy=0;entryX=0;entryY=0.5;entryDx=0;entryDy=0;fontColor=#FF0000;" edge="1" parent="1" source="ayYiNTBMR1gc4Ib_SkY1-7" target="ayYiNTBMR1gc4Ib_SkY1-33">
          <mxGeometry relative="1" as="geometry" />
        </mxCell>
        <mxCell id="ayYiNTBMR1gc4Ib_SkY1-30" style="edgeStyle=orthogonalEdgeStyle;rounded=1;orthogonalLoop=1;jettySize=auto;html=1;exitX=1;exitY=0.5;exitDx=0;exitDy=0;entryX=-0.007;entryY=0.652;entryDx=0;entryDy=0;entryPerimeter=0;fontColor=#FF0000;" edge="1" parent="1" source="ayYiNTBMR1gc4Ib_SkY1-23" target="ayYiNTBMR1gc4Ib_SkY1-16">
          <mxGeometry relative="1" as="geometry" />
        </mxCell>
        <mxCell id="ayYiNTBMR1gc4Ib_SkY1-31" value="00X9" style="text;html=1;align=center;verticalAlign=middle;resizable=0;points=[];autosize=1;strokeColor=none;fillColor=none;fontColor=#000000;" vertex="1" parent="1">
          <mxGeometry x="910" y="205" width="50" height="30" as="geometry" />
        </mxCell>
        <mxCell id="ayYiNTBMR1gc4Ib_SkY1-33" value="" style="rounded=1;whiteSpace=wrap;html=1;fillColor=none;dashed=1;" vertex="1" parent="1">
          <mxGeometry x="897.5" y="192.5" width="220" height="55" as="geometry" />
        </mxCell>
        <mxCell id="ayYiNTBMR1gc4Ib_SkY1-32" value="{&lt;br&gt;&amp;nbsp; name:’&lt;font color=&quot;#0000ff&quot;&gt;关注&lt;/font&gt;‘&lt;br&gt;&amp;nbsp;}" style="text;html=1;align=left;verticalAlign=middle;resizable=0;points=[];autosize=1;strokeColor=none;fillColor=none;fontColor=#000000;" vertex="1" parent="1">
          <mxGeometry x="1030" y="190" width="90" height="60" as="geometry" />
        </mxCell>
        <mxCell id="ayYiNTBMR1gc4Ib_SkY1-34" value="地址" style="text;html=1;align=center;verticalAlign=middle;resizable=0;points=[];autosize=1;strokeColor=none;fillColor=none;fontColor=#000000;" vertex="1" parent="1">
          <mxGeometry x="910" y="255" width="50" height="30" as="geometry" />
        </mxCell>
        <mxCell id="ayYiNTBMR1gc4Ib_SkY1-35" value="值" style="text;html=1;align=center;verticalAlign=middle;resizable=0;points=[];autosize=1;strokeColor=none;fillColor=none;fontColor=#000000;" vertex="1" parent="1">
          <mxGeometry x="1020" y="255" width="40" height="30" as="geometry" />
        </mxCell>
      </root>
    </mxGraphModel>
  </diagram>
</mxfile>
